# xmcd CD database file generated by LOLA_Freedb v0.9beta0
# 
# Track frame offsets:
#      150
#      11957
#      25344
#      37897
#      52322
#      67927
#      78638
#      91202
#      106756
#      121073
#      138069
#      155195
#      168290
#      184965
#      199171
#      212757
#      228702
#      241572
# 
# Disc length: 3450 seconds
# 
# Revision: 0 
# Processed by: cddbd v1.5.2PL0 Copyright (c) Steve Scherf et al.
# Submitted via: LOLA_Freedb v0.9beta0
# 
DISCID=f00d7812
DTITLE=Michael Dee - Ich Träum' so gern von Nashville
DYEAR=1998
DGENRE=
TTITLE0=Michael Dee - Only The Lonely
TTITLE1=Michael Dee - The Highlands
TTITLE2=Michael Dee - I'm So Lonesome, I Could Cry
TTITLE3=Michael Dee - Crying
TTITLE4=Michael Dee - Blue Bayou
TTITLE5=Michael Dee - El Paso
TTITLE6=Michael Dee - Nobody Loves You (... Like I Do)
TTITLE7=Michael Dee - Die Augen von Mary
TTITLE8=Michael Dee - Die Frau aus meinen Träumen
TTITLE9=Michael Dee - Country Sound vom Westerwald
TTITLE10=Michael Dee - Adler müssen fliegen
TTITLE11=Michael Dee - Trucker-Treff in Kaunitz
TTITLE12=Michael Dee - Regenbogen
TTITLE13=Michael Dee - 1000 Meilen weit
TTITLE14=Michael Dee - Blaue Augen , blondes Haar
TTITLE15=Michael Dee - Ich steh auf Country Music
TTITLE16=Michael Dee - Sierra Madre del Sur
TTITLE17=Michael Dee - Ich träum' so gern von Nashville
EXTD=
EXTT0=
EXTT1=
EXTT2=
EXTT3=
EXTT4=
EXTT5=
EXTT6=
EXTT7=
EXTT8=
EXTT9=
EXTT10=
EXTT11=
EXTT12=
EXTT13=
EXTT14=
EXTT15=
EXTT16=
EXTT17=
PLAYORDER=
